<svg width="116" height="31" viewBox="0 0 116 31" fill="none" xmlns="http://www.w3.org/2000/svg">
<g clip-path="url(#clip0_11133_16488)">
<path d="M106.946 8.91986C108.402 8.91986 109.583 7.74418 109.583 6.29391C109.583 4.84364 108.402 3.66797 106.946 3.66797C105.489 3.66797 104.309 4.84364 104.309 6.29391C104.309 7.74418 105.489 8.91986 106.946 8.91986Z" fill="#262626"/>
<path d="M43.8182 11.9041V13.558C42.275 12.2716 40.2798 11.502 37.9903 11.502C36.1556 11.502 34.4787 12.0266 33.0639 12.9321C34.5001 13.4887 35.931 14.0347 37.3645 14.5753C40.4991 15.7045 44.4146 17.1294 48.7634 18.5702V11.9041H43.8208H43.8182ZM42.6949 18.5116C42.6949 18.5116 42.7002 18.5222 42.7056 18.5276C43.2324 19.2892 43.524 20.2134 43.524 21.1934C43.524 23.8753 41.3522 26.0405 38.6563 26.0405C35.9604 26.0405 33.794 23.8727 33.794 21.1934C33.794 18.8951 35.4335 16.9536 37.6346 16.4928C37.6453 16.4875 37.6614 16.4822 37.6721 16.4822C35.5752 15.6087 33.6121 14.7431 31.8095 13.9069L31.7934 13.9228C29.8838 15.6965 28.707 18.2985 28.707 21.1934C28.707 26.5918 32.7188 30.9276 37.993 30.9276C40.2798 30.9276 42.2776 30.1552 43.8208 28.8715V30.5254H48.7634V20.7274C46.6879 20.011 44.6553 19.2653 42.6975 18.5116H42.6949Z" fill="#262626"/>
<path d="M52.4492 21.9498V30.5227H57.349V23.4226C55.6988 22.9618 54.0593 22.4638 52.4492 21.9498ZM57.349 14.325V11.9041H52.4492V19.766C54.078 20.28 55.7523 20.7833 57.4613 21.2707C57.9561 17.2758 60.0476 16.381 63.0698 16.381V11.502C60.5638 11.502 58.6809 12.4927 57.349 14.325Z" fill="#262626"/>
<path d="M77.8546 16.4939V11.9052H72.7677V7.75586H67.8251V11.9052H64.7227V16.4939H67.8251V23.8631C69.5074 24.212 71.1924 24.5262 72.8532 24.7792C72.7998 24.5502 72.7677 24.2972 72.7677 24.0229V16.4939H77.8546ZM78.213 27.027C74.9394 26.9258 71.4866 26.5236 67.9802 25.8925C67.9802 25.9031 67.9856 25.9191 67.9856 25.9297C68.5927 29.3413 70.9383 30.8141 74.3189 30.8141C76.7126 30.8141 78.443 29.5331 79.5128 28.3187L78.2157 27.027H78.213Z" fill="#262626"/>
<path d="M86.9764 30.5392H82.082V27.0477C83.3123 26.9945 84.5078 26.8826 85.6686 26.7148C85.8077 28.1663 86.2169 29.6337 86.9764 30.5392Z" fill="#262626"/>
<path d="M94.3025 23.6324V23.6377C93.5831 23.9547 92.8422 24.2689 92.0559 24.5139C91.9062 23.5925 92.3555 22.8974 93.1578 22.5352C93.3664 22.7535 93.5884 22.9746 93.7917 23.209C93.9147 23.3528 94.0511 23.4673 94.2062 23.5738C94.2383 23.5951 94.2704 23.6164 94.3025 23.6324Z" fill="#262626"/>
<path d="M100.624 20.9017V30.524H94.2395C94.416 29.3788 93.6163 28.1883 92.9717 27.1443C92.5732 26.4972 92.3111 25.7408 92.1373 24.9818C93.0118 24.6489 93.9158 24.268 94.6406 23.794C95.2478 24.1322 95.8362 24.3746 96.1544 25.0883C96.1972 25.1895 96.4834 25.2161 96.6599 25.2161C97.6709 25.2268 98.2513 24.3319 97.8314 23.3572C97.2884 22.0922 96.7669 20.8032 96.0849 19.61C95.5954 18.7525 95.2183 17.9242 95.3708 16.7444C95.0793 17.0826 94.9188 17.2691 94.6246 17.6073C94.7048 17.0187 94.7583 16.6326 94.8332 16.1026C94.4186 16.4195 94.0469 16.6059 93.8169 16.8962C93.4184 17.4155 92.9878 17.4688 92.3539 17.3889C89.0856 16.9974 85.8575 20.0601 85.4483 23.0483C85.7237 23.0483 85.7665 22.4917 86.0714 22.4917C86.0661 22.5929 86.0821 22.6728 86.0554 22.7367C85.7692 23.3625 85.6034 24.4065 85.6034 25.5597C84.4533 25.6396 83.2792 25.6662 82.0703 25.6502V3.16992H86.9754V13.4873C88.2325 12.2356 89.9281 11.5058 92.0303 11.5058C97.8207 11.5058 100.624 15.6924 100.624 20.9044V20.9017Z" fill="#262626"/>
<path d="M21.0825 9.43945L21.0771 9.44478C21.0771 9.44478 21.0691 9.43945 21.0664 9.43945H21.0825Z" fill="#262626"/>
<path d="M37.6716 16.4835C37.6716 16.4835 37.6449 16.4889 37.6342 16.4942C35.548 15.6153 33.5903 14.7498 31.793 13.9242L31.809 13.9082C33.6117 14.7445 35.5774 15.61 37.6716 16.4835Z" fill="#262626"/>
<path d="M48.7612 20.7275V20.7542C46.6857 20.0324 44.6584 19.2867 42.706 18.5277C42.7007 18.5224 42.7007 18.517 42.6953 18.5117C44.6531 19.2654 46.6857 20.0111 48.7612 20.7275Z" fill="#262626"/>
<path d="M57.349 23.4239V23.4506C55.7041 22.9845 54.0646 22.4918 52.4492 21.9725V21.9512C54.062 22.4652 55.7015 22.9632 57.349 23.4239Z" fill="#262626"/>
<path d="M78.2614 27.0751C74.9664 26.9685 71.5082 26.561 67.9858 25.9299C67.9858 25.9192 67.9805 25.9032 67.9805 25.8926C71.4868 26.5238 74.9396 26.9259 78.2132 27.0271L78.2614 27.0751Z" fill="#262626"/>
<path opacity="0.5" d="M20.1941 23.0234C20.1941 23.0767 20.1861 23.1273 20.1807 23.1779C20.1433 23.6839 19.9882 24.0994 19.7608 24.4403C19.7608 24.4456 19.7555 24.4509 19.7528 24.4563C19.6886 24.5521 19.6218 24.64 19.5469 24.7252C19.8571 24.3071 20.0978 23.7585 20.1941 23.0234Z" fill="#262626"/>
<path opacity="0.5" d="M16.8329 14.5277L13.8401 18.1071H13.8375L8.03906 16.3734L10.9704 12.8606H10.9757C10.9757 12.8606 10.9784 12.8579 10.9811 12.8606C10.9891 12.8606 10.9918 12.8659 10.9944 12.8685H10.9918C10.9918 12.8685 10.9944 12.8712 10.9944 12.8739C10.9944 12.8739 11.0016 12.8757 11.0158 12.8792C11.2592 12.9777 11.5454 13.0683 11.853 13.1455L16.8329 14.5277Z" fill="#262626"/>
<path d="M25.023 23.0231L25.0123 30.7891H0V25.9846L7.63848 16.8498H7.64115L8.03966 16.373L13.8381 18.1041H13.8407C13.8996 18.1255 13.9638 18.1441 14.0279 18.1707H14.0333C14.0948 18.1947 14.1563 18.216 14.2205 18.24C14.718 18.4264 15.2529 18.6634 15.4454 18.8365C15.7396 19.0975 15.8867 19.4544 15.8867 19.9231C15.8867 19.9684 15.8867 20.0137 15.8814 20.059C15.8466 20.6635 15.5578 21.1269 15.0015 21.4758C14.4345 21.8273 13.4663 21.9685 12.1317 21.8939C11.9284 21.8833 11.5593 21.8433 11.2411 21.8034C11.1608 21.7927 11.0886 21.7821 11.0244 21.7767H11.0191C10.9282 21.7634 10.8533 21.7528 10.7971 21.7474L10.5083 22.0963L7.22927 26.0139H17.0101C18.1735 26.0139 19.1978 25.3881 19.7541 24.456C19.7541 24.4506 19.7595 24.4453 19.7622 24.44C19.9895 24.0991 20.1446 23.6836 20.1821 23.1776C20.1874 23.127 20.1928 23.0764 20.1954 23.0231H25.023Z" fill="#262626"/>
<path d="M20.1816 23.1777C20.1442 23.6837 19.9891 24.0992 19.7617 24.4401C19.9864 24.0619 20.1335 23.6358 20.1816 23.1777Z" fill="#262626"/>
<path d="M24.9773 0V4.75653L21.9604 8.36787L21.9363 8.3945C20.7569 7.84854 19.1548 7.15344 18.1331 6.63144C18.2615 6.69802 18.3846 6.78591 18.5103 6.86048C19.2056 7.27328 21.5485 8.64751 21.6635 8.72208L21.5592 8.84725L21.5352 8.87388L21.2998 9.15885L21.0778 9.43583H21.0618C21.0618 9.43583 21.0698 9.43849 21.0725 9.44115L16.828 14.5253L11.848 13.143C11.5404 13.0658 11.2542 12.9753 11.0109 12.8767C11.0109 12.8767 11.0037 12.8732 10.9895 12.8661C10.9895 12.8661 10.9841 12.8607 10.9681 12.8527C10.936 12.8368 10.8825 12.8155 10.8317 12.7915C10.8236 12.7808 10.8129 12.7755 10.7969 12.7702C10.706 12.7249 10.6204 12.6796 10.6204 12.6796C10.3663 12.5545 10.1791 12.4186 10.0293 12.2775C9.68429 11.9233 9.53184 11.5025 9.55858 10.9832C9.5987 10.2614 9.92767 9.73677 10.5589 9.39055C11.1071 9.08428 11.8747 8.92715 12.8269 8.92715C12.9927 8.92715 13.1639 8.93248 13.3511 8.94313C13.4688 8.95112 13.5945 8.95644 13.7228 8.97242C13.7309 8.97242 13.8138 8.9884 13.9288 9.0177C13.9448 9.0177 13.9582 9.02302 13.9742 9.02835C14.0251 9.039 14.0705 9.05232 14.132 9.0683L14.4664 8.67414L17.7534 4.7299H8.53691C6.81451 4.7299 5.40503 6.07483 5.29805 7.76332H0.0078125L0.0185106 0H24.9773Z" fill="#262626"/>
<path d="M10.9951 12.8693H10.9924C10.9924 12.8693 10.9906 12.8684 10.9871 12.8667C10.9871 12.8667 10.9844 12.864 10.9844 12.8613C10.9924 12.8613 10.9951 12.8667 10.9977 12.8693H10.9951Z" fill="#262626"/>
<path d="M21.0825 9.43945L21.0771 9.44478C21.0771 9.44478 21.0691 9.43945 21.0664 9.43945H21.0825Z" fill="#262626"/>
<path d="M113.015 25.529C112.81 25.7634 112.392 26.1842 111.804 26.344C111.654 26.3866 111.491 26.4106 111.32 26.4106C110.416 26.4106 109.787 26.0377 109.477 25.3586C109.349 25.0789 109.274 24.7487 109.26 24.3679V24.3599C109.255 24.3119 109.255 24.2587 109.255 24.2081V16.6818H109.258V12.0904H109.255V12.0371H104.312V24.2081C104.312 24.28 104.313 24.3492 104.315 24.4185C104.315 24.4238 104.315 24.4318 104.318 24.4371C104.371 27.6836 105.642 29.6118 107.744 30.4667C108.627 30.8289 109.656 30.9993 110.804 30.9993C111.314 30.9993 111.793 30.9407 112.243 30.8369C112.272 30.8289 112.301 30.8235 112.331 30.8155C113.952 30.4214 115.174 29.4413 116 28.5039L113.015 25.529Z" fill="#262626"/>
<path d="M86.2617 26.3736C86.7859 26.299 87.3075 26.2138 87.8183 26.1152C87.3048 26.2138 86.7859 26.3017 86.2617 26.3736Z" fill="#262626"/>
<path d="M89.8359 25.6466C90.3281 25.5108 90.8148 25.3617 91.2909 25.1992C90.8148 25.3643 90.3281 25.5135 89.8359 25.6466Z" fill="#262626"/>
<path d="M94.0403 24.0273C93.7488 24.1818 93.4519 24.323 93.1523 24.4614C93.4546 24.323 93.7488 24.1791 94.0403 24.0273Z" fill="#262626"/>
<path d="M86.2617 26.3736C86.7859 26.299 87.3075 26.2138 87.8183 26.1152C87.3048 26.2138 86.7859 26.3017 86.2617 26.3736Z" fill="#262626"/>
<path d="M89.8359 25.6466C90.3281 25.5108 90.8148 25.3617 91.2909 25.1992C90.8148 25.3643 90.3281 25.5135 89.8359 25.6466Z" fill="#262626"/>
<path d="M94.0403 24.0273C93.7488 24.1818 93.4519 24.323 93.1523 24.4614C93.4546 24.323 93.7488 24.1791 94.0403 24.0273Z" fill="#262626"/>
<path d="M57.7188 21.9258C58.5666 22.1655 59.4144 22.3998 60.2649 22.6262C59.4144 22.4025 58.5639 22.1681 57.7188 21.9258Z" fill="#262626"/>
<path d="M81.0508 25.9883C81.2621 25.9936 81.4734 25.9936 81.6846 25.9963C81.4734 25.9963 81.2621 25.9936 81.0508 25.9883Z" fill="#262626"/>
<path d="M78.6055 25.8867C78.8569 25.9027 79.1056 25.916 79.3543 25.9267C79.1056 25.9134 78.8569 25.9027 78.6055 25.8867Z" fill="#262626"/>
<path d="M79.3516 25.9258C79.6886 25.9418 80.0229 25.9577 80.3572 25.9684C80.0255 25.9577 79.6886 25.9444 79.3516 25.9258Z" fill="#262626"/>
<path d="M75.9492 25.6602C76.1685 25.6841 76.3852 25.7054 76.6018 25.7267C76.3852 25.7054 76.1659 25.6841 75.9492 25.6602Z" fill="#262626"/>
<path d="M84.9102 25.9052C85.1027 25.8919 85.2953 25.8812 85.4852 25.8652C85.2953 25.8812 85.1 25.8919 84.9102 25.9052Z" fill="#262626"/>
<path d="M81.6824 25.9961C81.8856 25.9961 82.0862 25.9961 82.2868 25.9961C82.2012 25.9961 82.1183 25.9988 82.0327 25.9988C81.915 25.9988 81.7974 25.9961 81.6797 25.9961H81.6824Z" fill="#262626"/>
<path d="M85.4844 25.8652C85.8882 25.8333 86.2894 25.796 86.6852 25.748C86.2894 25.7933 85.8882 25.8306 85.4844 25.8652Z" fill="#262626"/>
<path d="M84.2578 25.9442C84.4771 25.9336 84.6938 25.9176 84.9077 25.9043C84.6911 25.9176 84.4744 25.9336 84.2578 25.9442Z" fill="#262626"/>
<path d="M82.2891 25.9963C82.5271 25.9963 82.7678 25.9909 83.0032 25.9883C82.7651 25.9936 82.5271 25.9963 82.2891 25.9963Z" fill="#262626"/>
<path d="M83.5859 25.97C83.8106 25.962 84.0379 25.954 84.2599 25.9434C84.0353 25.954 83.8106 25.962 83.5859 25.97Z" fill="#262626"/>
<path d="M83.0039 25.9886C83.1991 25.9833 83.3917 25.978 83.5843 25.9727C83.3917 25.978 83.1991 25.986 83.0039 25.9886Z" fill="#262626"/>
<path d="M64.4844 23.6758C64.6662 23.7184 64.8454 23.7583 65.0273 23.7983C64.8454 23.7583 64.6662 23.7157 64.4844 23.6758Z" fill="#262626"/>
<path d="M67.3242 24.2949C67.5302 24.3375 67.7388 24.3801 67.9447 24.4228C67.7388 24.3828 67.5302 24.3375 67.3242 24.2949Z" fill="#262626"/>
<path d="M66.5156 24.127C66.7858 24.1855 67.0559 24.2415 67.3233 24.2947C67.0532 24.2388 66.7858 24.1829 66.5156 24.127Z" fill="#262626"/>
<path d="M63.0859 23.3438C63.5513 23.4583 64.0193 23.5675 64.4847 23.674C64.0193 23.5675 63.554 23.4556 63.0859 23.3438Z" fill="#262626"/>
<path d="M65.0273 23.7988C65.3162 23.8654 65.605 23.9293 65.8912 23.9906C65.6024 23.9267 65.3162 23.8627 65.0273 23.7988Z" fill="#262626"/>
<path d="M75.2656 25.5859C75.493 25.6126 75.7203 25.6339 75.9476 25.6578C75.7203 25.6339 75.493 25.6099 75.2656 25.5859Z" fill="#262626"/>
<path d="M65.8906 23.9902C66.0966 24.0355 66.3052 24.0808 66.5111 24.1234C66.3052 24.0781 66.0966 24.0355 65.8906 23.9902Z" fill="#262626"/>
<path d="M73.3828 25.3457C73.7305 25.3936 74.0782 25.4416 74.4259 25.4842C74.0809 25.4416 73.7332 25.3936 73.3828 25.3457Z" fill="#262626"/>
<path d="M69.8672 24.7832C70.1132 24.8285 70.362 24.8711 70.608 24.9137C70.362 24.8711 70.1159 24.8258 69.8672 24.7832Z" fill="#262626"/>
<path d="M71.3086 25.0312C71.5359 25.0685 71.7606 25.1032 71.9879 25.1404C71.7633 25.1058 71.5359 25.0685 71.3086 25.0312Z" fill="#262626"/>
<path d="M70.6094 24.9141C70.8447 24.954 71.0774 24.994 71.3101 25.0312C71.0774 24.994 70.8421 24.954 70.6094 24.9141Z" fill="#262626"/>
<path d="M86.6875 25.7473C87.1823 25.6887 87.6717 25.6222 88.1505 25.5449C87.6717 25.6248 87.1823 25.6914 86.6875 25.7473Z" fill="#262626"/>
<path d="M96.5382 22.4641C95.7519 23.0554 94.9174 23.5747 94.0402 24.0274C93.7487 24.1792 93.4545 24.3231 93.1523 24.4615C92.5478 24.7332 91.9273 24.9782 91.2908 25.1993C90.8147 25.3617 90.328 25.5109 89.8358 25.6467C89.1779 25.8278 88.5039 25.9823 87.8192 26.1154C87.3084 26.214 86.7869 26.2992 86.2627 26.3738C85.7384 26.4483 85.2035 26.5096 84.666 26.5575C84.3076 26.5921 83.9492 26.6188 83.5881 26.6427C82.6841 26.7013 81.7668 26.728 80.8414 26.728C78.9852 26.728 77.097 26.6188 75.2088 26.4297C74.7006 26.3791 74.1925 26.3205 73.687 26.2592C73.6201 26.2512 73.5533 26.2433 73.4864 26.2353C72.9809 26.1713 72.4808 26.1048 71.978 26.0302C71.1328 25.9077 70.293 25.7719 69.4585 25.6254C68.9691 25.5402 68.4797 25.4523 67.9956 25.3591C67.2093 25.2099 66.431 25.0528 65.6634 24.8903C65.1499 24.7811 64.6417 24.6693 64.1416 24.5548C63.1359 24.3284 62.1544 24.094 61.1996 23.857C60.7208 23.7398 60.2501 23.62 59.7874 23.5028C58.6293 23.2045 57.5194 22.9089 56.4683 22.6239C44.5934 19.0525 32.9244 14.5597 21.9721 8.73518C21.916 8.70588 21.8571 8.67392 21.801 8.64463C21.7876 8.63664 21.7716 8.62865 21.7582 8.62066C20.6723 8.0454 19.5972 7.45416 18.5273 6.84961C19.6319 7.41421 20.7499 7.95751 21.8732 8.48217C21.8892 8.49016 21.9026 8.49549 21.9187 8.50348C21.9775 8.53011 22.0337 8.55674 22.0925 8.58337C23.9968 9.47023 25.9224 10.3118 27.8561 11.1347C33.1892 13.3612 40.9079 16.5198 49.3942 19.3508C49.8462 19.5026 50.3008 19.6518 50.7555 19.7982C51.7397 20.1205 52.732 20.4374 53.7323 20.7463C54.2752 20.9141 54.8235 21.0792 55.3718 21.2444C56.1527 21.4761 56.9364 21.7051 57.72 21.9262C58.5652 22.1685 59.4157 22.4029 60.2662 22.6266C60.8947 22.7944 61.5205 22.9542 62.1464 23.1113C62.4593 23.1885 62.7722 23.2658 63.0878 23.343C63.5532 23.4575 64.0212 23.5667 64.4866 23.6732C64.6684 23.7158 64.8476 23.7558 65.0295 23.7984C65.3184 23.8623 65.6072 23.9262 65.8934 23.9902C66.3721 24.0967 66.8482 24.1979 67.3243 24.2938C67.5302 24.3364 67.7388 24.379 67.9448 24.4189C68.3727 24.5042 68.8006 24.5894 69.2285 24.6666C69.4425 24.7066 69.6538 24.7439 69.8678 24.7838C70.1138 24.8264 70.3625 24.8717 70.6086 24.9143C70.844 24.9569 71.0766 24.9942 71.3093 25.0315C71.772 25.1087 72.2347 25.1806 72.6947 25.2472C73.5426 25.375 74.3824 25.4842 75.2141 25.5801C75.2329 25.5801 75.2489 25.5828 75.2676 25.5854C78.8676 25.9982 82.315 26.1234 85.487 25.8651C85.8909 25.8305 86.2921 25.7932 86.6879 25.7479C87.1827 25.692 87.6721 25.6254 88.1509 25.5455C88.4691 25.4949 88.7847 25.439 89.0977 25.375C89.2555 25.3431 89.4133 25.3111 89.5684 25.2792C89.876 25.2152 90.1808 25.1433 90.4804 25.0661C90.6328 25.0262 90.7826 24.9889 90.9324 24.9489C91.2293 24.869 91.5208 24.7811 91.8096 24.6906C92.2456 24.5521 92.6708 24.403 93.0854 24.2432C93.3609 24.1366 93.6337 24.0248 93.9011 23.9076C94.8372 23.4948 95.7171 23.0154 96.5356 22.4641H96.5382Z" fill="#262626"/>
</g>
<defs>
<clipPath id="clip0_11133_16488">
<rect width="116" height="31" fill="white"/>
</clipPath>
</defs>
</svg>
